<svg width="500" height="300" viewBox="0 0 500 300" fill="none" xmlns="http://www.w3.org/2000/svg">
<path fill-rule="evenodd" clip-rule="evenodd" d="M343.505 186.813C346.087 187.5 348.898 189.663 351.234 192.828C354.984 191.64 358.529 191.543 361.022 192.504C360.335 195.086 358.172 197.897 355.007 200.233C356.195 203.983 356.292 207.528 355.331 210.021C352.749 209.334 349.938 207.171 347.602 204.006C343.852 205.194 340.307 205.291 337.814 204.33C338.501 201.748 340.664 198.937 343.829 196.601C342.641 192.851 342.544 189.305 343.505 186.813ZM125.968 112.308C127.4 114.505 128.03 117.929 127.654 121.773C131.171 123.37 133.821 125.628 135.008 127.967C132.811 129.398 129.386 130.029 125.543 129.653C123.946 133.17 121.688 135.82 119.349 137.007C117.917 134.81 117.287 131.385 117.663 127.542C114.146 125.945 111.496 123.687 110.309 121.348C112.506 119.916 115.93 119.286 119.774 119.661C121.371 116.145 123.629 113.495 125.968 112.308ZM195.704 58.6836C197.008 62.248 196.782 67.2809 195.002 72.5777C199.439 75.9733 202.441 80.0194 203.354 83.7033C199.789 85.0069 194.756 84.7808 189.46 83.0005C186.064 87.4384 182.018 90.4402 178.334 91.3527C177.03 87.7882 177.256 82.7553 179.037 77.4586C174.599 74.0629 171.597 70.0169 170.685 66.3329C174.249 65.0293 179.282 65.2554 184.579 67.0357C187.974 62.5979 192.02 59.5961 195.704 58.6836Z" fill="#E0E2FF"/>
<path fill-rule="evenodd" clip-rule="evenodd" d="M231 135.293C231 107.529 253.025 85 280.22 85C307.416 85 329.44 107.529 329.44 135.293C329.44 158.108 313.934 176.173 290.145 184.545L254.366 196.733C248.461 198.744 244.463 194.828 246.385 188.894L250.706 175.546C238.416 166.128 231 151.345 231 135.293Z" fill="#E6E9FF" stroke="#828FF4" stroke-width="3" stroke-linecap="round"/>
<path fill-rule="evenodd" clip-rule="evenodd" d="M261.469 128.75C264.489 128.75 266.938 131.198 266.938 134.219C266.938 137.239 264.489 139.688 261.469 139.688C258.448 139.688 256 137.239 256 134.219C256 131.198 258.448 128.75 261.469 128.75ZM280.219 128.75C283.239 128.75 285.688 131.198 285.688 134.219C285.688 137.239 283.239 139.688 280.219 139.688C277.198 139.688 274.75 137.239 274.75 134.219C274.75 131.198 277.198 128.75 280.219 128.75ZM304.438 134.219C304.438 131.198 301.989 128.75 298.969 128.75C295.948 128.75 293.5 131.198 293.5 134.219C293.5 137.239 295.948 139.688 298.969 139.688C301.989 139.688 304.438 137.239 304.438 134.219Z" fill="white"/>
<path d="M268.438 134.219C268.438 130.37 265.317 127.25 261.469 127.25V130.25C263.661 130.25 265.438 132.027 265.438 134.219H268.438ZM261.469 141.188C265.317 141.188 268.438 138.067 268.438 134.219H265.438C265.438 136.411 263.661 138.188 261.469 138.188V141.188ZM254.5 134.219C254.5 138.067 257.62 141.188 261.469 141.188V138.188C259.277 138.188 257.5 136.411 257.5 134.219H254.5ZM261.469 127.25C257.62 127.25 254.5 130.37 254.5 134.219H257.5C257.5 132.027 259.277 130.25 261.469 130.25V127.25ZM287.188 134.219C287.188 130.37 284.067 127.25 280.219 127.25V130.25C282.411 130.25 284.188 132.027 284.188 134.219H287.188ZM280.219 141.188C284.067 141.188 287.188 138.067 287.188 134.219H284.188C284.188 136.411 282.411 138.188 280.219 138.188V141.188ZM273.25 134.219C273.25 138.067 276.37 141.188 280.219 141.188V138.188C278.027 138.188 276.25 136.411 276.25 134.219H273.25ZM280.219 127.25C276.37 127.25 273.25 130.37 273.25 134.219H276.25C276.25 132.027 278.027 130.25 280.219 130.25V127.25ZM298.969 130.25C301.161 130.25 302.938 132.027 302.938 134.219H305.938C305.938 130.37 302.817 127.25 298.969 127.25V130.25ZM295 134.219C295 132.027 296.777 130.25 298.969 130.25V127.25C295.12 127.25 292 130.37 292 134.219H295ZM298.969 138.188C296.777 138.188 295 136.411 295 134.219H292C292 138.067 295.12 141.188 298.969 141.188V138.188ZM302.938 134.219C302.938 136.411 301.161 138.188 298.969 138.188V141.188C302.817 141.188 305.938 138.067 305.938 134.219H302.938Z" fill="#7E86EE"/>
<path d="M226 194.188C226 176.418 211.904 162 194.499 162C177.094 162 162.998 176.418 162.998 194.188C162.998 208.789 172.922 220.351 188.147 225.709L211.046 233.509C214.825 234.796 217.383 232.29 216.154 228.492L213.388 219.95C221.254 213.922 226 204.461 226 194.188Z" fill="white" stroke="#7E86EE" stroke-width="3" stroke-linecap="round"/>
<path fill-rule="evenodd" clip-rule="evenodd" d="M206.5 190C204.567 190 203 191.567 203 193.5C203 195.433 204.567 197 206.5 197C208.433 197 210 195.433 210 193.5C210 191.567 208.433 190 206.5 190ZM194.5 190C192.567 190 191 191.567 191 193.5C191 195.433 192.567 197 194.5 197C196.433 197 198 195.433 198 193.5C198 191.567 196.433 190 194.5 190ZM179 193.5C179 191.567 180.567 190 182.5 190C184.433 190 186 191.567 186 193.5C186 195.433 184.433 197 182.5 197C180.567 197 179 195.433 179 193.5Z" fill="white"/>
<path d="M201.5 193.5C201.5 190.739 203.739 188.5 206.5 188.5V191.5C205.395 191.5 204.5 192.395 204.5 193.5H201.5ZM206.5 198.5C203.739 198.5 201.5 196.261 201.5 193.5H204.5C204.5 194.605 205.395 195.5 206.5 195.5V198.5ZM211.5 193.5C211.5 196.261 209.261 198.5 206.5 198.5V195.5C207.605 195.5 208.5 194.605 208.5 193.5H211.5ZM206.5 188.5C209.261 188.5 211.5 190.739 211.5 193.5H208.5C208.5 192.395 207.605 191.5 206.5 191.5V188.5ZM189.5 193.5C189.5 190.739 191.739 188.5 194.5 188.5V191.5C193.395 191.5 192.5 192.395 192.5 193.5H189.5ZM194.5 198.5C191.739 198.5 189.5 196.261 189.5 193.5H192.5C192.5 194.605 193.395 195.5 194.5 195.5V198.5ZM199.5 193.5C199.5 196.261 197.261 198.5 194.5 198.5V195.5C195.605 195.5 196.5 194.605 196.5 193.5H199.5ZM194.5 188.5C197.261 188.5 199.5 190.739 199.5 193.5H196.5C196.5 192.395 195.605 191.5 194.5 191.5V188.5ZM182.5 191.5C181.395 191.5 180.5 192.395 180.5 193.5H177.5C177.5 190.739 179.739 188.5 182.5 188.5V191.5ZM184.5 193.5C184.5 192.395 183.605 191.5 182.5 191.5V188.5C185.261 188.5 187.5 190.739 187.5 193.5H184.5ZM182.5 195.5C183.605 195.5 184.5 194.605 184.5 193.5H187.5C187.5 196.261 185.261 198.5 182.5 198.5V195.5ZM180.5 193.5C180.5 194.605 181.395 195.5 182.5 195.5V198.5C179.739 198.5 177.5 196.261 177.5 193.5H180.5Z" fill="#7E86EE"/>
</svg>
