<svg width="250" height="150" viewBox="0 0 250 150" fill="none" xmlns="http://www.w3.org/2000/svg">
<path fill-rule="evenodd" clip-rule="evenodd" d="M79.4794 113.333C80.7672 113.581 82.2177 114.543 83.4697 116.014C85.2654 115.303 86.998 115.134 88.2516 115.52C88.0033 116.807 87.0407 118.258 85.5707 119.51C86.2808 121.306 86.4498 123.038 86.0645 124.292C84.7767 124.044 83.3262 123.081 82.0741 121.611C80.2785 122.321 78.5459 122.49 77.2923 122.105C77.5405 120.817 78.5032 119.366 79.9732 118.114C79.2631 116.319 79.094 114.586 79.4794 113.333ZM54.8575 45.7083C55.9197 46.4775 56.8274 47.963 57.3409 49.8244C59.2684 49.9397 60.9102 50.5187 61.8835 51.3978C61.1142 52.46 59.6287 53.3677 57.7673 53.8812C57.6521 55.8087 57.073 57.4505 56.1939 58.4237C55.1317 57.6545 54.224 56.169 53.7105 54.3076C51.783 54.1923 50.1412 53.6133 49.168 52.7342C49.9372 51.672 51.4227 50.7643 53.2841 50.2508C53.3994 48.3233 53.9784 46.6815 54.8575 45.7083ZM191.014 38.3984C191.965 40.0404 192.291 42.5382 191.874 45.301C194.354 46.5877 196.184 48.3193 196.953 50.0541C195.311 51.0055 192.813 51.3311 190.05 50.9144C188.763 53.3944 187.032 55.2238 185.297 55.993C184.346 54.351 184.02 51.8532 184.437 49.0905C181.957 47.8037 180.127 46.0721 179.358 44.3373C181 43.3859 183.498 43.0603 186.261 43.477C187.547 40.997 189.279 39.1676 191.014 38.3984Z" fill="#E0E2FF"/>
<path fill-rule="evenodd" clip-rule="evenodd" d="M82.2888 54.3731C81.2484 49.0141 84.3915 42.8571 89.3666 40.6051L89.5509 40.5221C89.8369 40.3721 93.6262 38.4294 106.059 34.1351L107.625 33.5976C119.976 29.3849 123.819 28.7265 123.819 28.7265C129.108 27.3858 135.599 30.0819 138.284 34.8401L138.378 35.0075C138.556 35.2713 143.074 42.0386 149 59.25L149.357 60.2945C155.086 77.2023 156.036 86.6523 156.036 86.6523C156.928 91.9772 153.698 97.9483 148.755 100.128L147.566 100.639C145.848 101.359 141.269 103.184 131.442 106.567L129.151 107.351C117.699 111.247 114.179 112.058 114.179 112.058C108.929 113.556 102.604 110.905 100.066 106.073L99.9723 105.893C99.7222 105.476 95.5084 98.3428 89.7372 81.6872L89.5563 81.1636C83.5111 63.607 82.2888 54.3731 82.2888 54.3731Z" fill="#E6E9FF" stroke="#828FF4" stroke-width="3" stroke-linecap="round"/>
<path fill-rule="evenodd" clip-rule="evenodd" d="M94.5065 58.0531C93.5758 55.6826 90.8498 54.5096 88.418 55.4332C86.7406 56.0703 85.6413 57.5384 85.426 59.1659L82.1185 60.4219C80.8396 60.9076 80.2003 62.3127 80.6902 63.5604L80.7307 63.6574C81.2544 64.8374 82.6474 65.413 83.8925 64.9401L87.4889 63.5748C88.7163 64.3651 90.307 64.5806 91.7886 64.0179C94.2204 63.0942 95.4373 60.4237 94.5065 58.0531ZM94.9016 74.2631C97.3334 73.3394 100.059 74.5124 100.99 76.883C101.921 79.2535 100.704 81.924 98.2722 82.8477C96.7904 83.4105 95.1995 83.1949 93.972 82.4043L90.3761 83.7699C89.131 84.2428 87.7381 83.6672 87.2143 82.4872L87.1738 82.3902C86.6839 81.1425 87.3232 79.7374 88.6021 79.2517L91.9097 77.9952C92.1252 76.3679 93.2244 74.9001 94.9016 74.2631ZM101.413 93.1734C103.845 92.2498 106.571 93.4228 107.502 95.7933C108.432 98.1639 107.215 100.834 104.784 101.758C103.302 102.321 101.711 102.105 100.483 101.315L96.8875 102.68C95.6424 103.153 94.2494 102.578 93.7257 101.398L93.6851 101.301C93.1953 100.053 93.8346 98.6478 95.1135 98.1621L98.4211 96.9056C98.6365 95.2783 99.7358 93.8104 101.413 93.1734Z" fill="white"/>
<path d="M88.418 55.4332L88.9505 56.8355L88.9505 56.8355L88.418 55.4332ZM85.426 59.1659L85.9585 60.5682L86.7956 60.2504L86.913 59.3627L85.426 59.1659ZM82.1185 60.4219L81.586 59.0196L81.5859 59.0196L82.1185 60.4219ZM80.6902 63.5604L79.2939 64.1086L79.2999 64.1238L79.3062 64.1388L80.6902 63.5604ZM80.7307 63.6574L79.3467 64.2358L79.353 64.2509L79.3597 64.2659L80.7307 63.6574ZM83.8925 64.9401L83.3601 63.5378L83.3599 63.5378L83.8925 64.9401ZM87.4889 63.5748L88.3009 62.3136L87.6644 61.9037L86.9565 62.1724L87.4889 63.5748ZM91.7886 64.0179L92.3212 65.4201L92.3212 65.4201L91.7886 64.0179ZM100.99 76.883L99.5939 77.4312L99.5939 77.4312L100.99 76.883ZM94.9016 74.2631L94.369 72.8608L94.369 72.8608L94.9016 74.2631ZM98.2722 82.8477L97.7396 81.4454L97.7396 81.4454L98.2722 82.8477ZM93.972 82.4043L94.7842 81.1432L94.1475 80.7331L93.4395 81.002L93.972 82.4043ZM90.3761 83.7699L89.8436 82.3676L89.8435 82.3677L90.3761 83.7699ZM87.2143 82.4872L85.8304 83.0657L85.8367 83.0808L85.8433 83.0957L87.2143 82.4872ZM87.1738 82.3902L85.7776 82.9384L85.7835 82.9536L85.7898 82.9687L87.1738 82.3902ZM88.6021 79.2517L89.1347 80.654L89.1348 80.6539L88.6021 79.2517ZM91.9097 77.9952L92.4424 79.3975L93.2792 79.0796L93.3967 78.1921L91.9097 77.9952ZM107.502 95.7933L108.898 95.2451L108.898 95.2451L107.502 95.7933ZM101.413 93.1734L101.946 94.5757L101.946 94.5757L101.413 93.1734ZM104.784 101.758L105.316 103.16L105.316 103.16L104.784 101.758ZM100.483 101.315L101.296 100.054L100.659 99.6435L99.9508 99.9124L100.483 101.315ZM96.8875 102.68L96.3549 101.278L96.3549 101.278L96.8875 102.68ZM93.7257 101.398L92.3417 101.976L92.348 101.991L92.3547 102.006L93.7257 101.398ZM93.6851 101.301L92.2889 101.849L92.2949 101.864L92.3012 101.879L93.6851 101.301ZM95.1135 98.1621L95.6461 99.5643L95.6461 99.5643L95.1135 98.1621ZM98.4211 96.9056L98.9537 98.3078L99.7906 97.9899L99.9081 97.1025L98.4211 96.9056ZM88.9505 56.8355C90.6418 56.1931 92.4906 57.0231 93.1103 58.6013L95.9028 57.5049C94.6609 54.342 91.0578 52.826 87.8854 54.031L88.9505 56.8355ZM86.913 59.3627C87.057 58.2747 87.7956 57.2742 88.9505 56.8355L87.8854 54.031C85.6857 54.8664 84.2256 56.8021 83.939 58.9692L86.913 59.3627ZM82.6509 61.8242L85.9585 60.5682L84.8935 57.7636L81.586 59.0196L82.6509 61.8242ZM82.0864 63.0122C81.9122 62.5686 82.1254 62.0238 82.6511 61.8241L81.5859 59.0196C79.5537 59.7915 78.4883 62.0568 79.2939 64.1086L82.0864 63.0122ZM82.1147 63.0789L82.0741 62.9819L79.3062 64.1388L79.3467 64.2358L82.1147 63.0789ZM83.3599 63.5378C82.8396 63.7354 82.2938 63.4816 82.1017 63.0488L79.3597 64.2659C80.2151 66.1932 82.4552 67.0906 84.4251 66.3424L83.3599 63.5378ZM86.9565 62.1724L83.3601 63.5378L84.4248 66.3424L88.0213 64.9771L86.9565 62.1724ZM91.256 62.6156C90.2337 63.0039 89.1409 62.8544 88.3009 62.3136L86.6768 64.8359C88.2918 65.8758 90.3803 66.1573 92.3212 65.4201L91.256 62.6156ZM93.1103 58.6013C93.7248 60.1665 92.9359 61.9775 91.256 62.6156L92.3212 65.4201C95.5049 64.2109 97.1498 60.681 95.9028 57.5049L93.1103 58.6013ZM102.386 76.3348C101.145 73.1718 97.5415 71.6559 94.369 72.8608L95.4342 75.6653C97.1254 75.023 98.9743 75.853 99.5939 77.4312L102.386 76.3348ZM98.8048 84.25C101.989 83.0407 103.633 79.5108 102.386 76.3348L99.5939 77.4312C100.208 78.9963 99.4196 80.8074 97.7396 81.4454L98.8048 84.25ZM93.1598 83.6653C94.7748 84.7056 96.8636 84.9872 98.8048 84.25L97.7396 81.4454C96.7172 81.8337 95.6242 81.6842 94.7842 81.1432L93.1598 83.6653ZM90.9087 85.1722L94.5046 83.8066L93.4395 81.002L89.8436 82.3676L90.9087 85.1722ZM85.8433 83.0957C86.6987 85.023 88.9388 85.9204 90.9087 85.1722L89.8435 82.3677C89.3233 82.5652 88.7774 82.3114 88.5854 81.8787L85.8433 83.0957ZM85.7898 82.9687L85.8304 83.0657L88.5983 81.9087L88.5578 81.8117L85.7898 82.9687ZM88.0695 77.8494C86.0373 78.6213 84.972 80.8866 85.7776 82.9384L88.57 81.842C88.3959 81.3984 88.6091 80.8536 89.1347 80.654L88.0695 77.8494ZM91.377 76.593L88.0694 77.8495L89.1348 80.6539L92.4424 79.3975L91.377 76.593ZM94.369 72.8608C92.1696 73.6962 90.7096 75.6315 90.4227 77.7983L93.3967 78.1921C93.5408 77.1043 94.2793 76.104 95.4342 75.6653L94.369 72.8608ZM108.898 95.2451C107.656 92.0822 104.053 90.5662 100.88 91.7712L101.946 94.5757C103.637 93.9334 105.486 94.7633 106.105 96.3415L108.898 95.2451ZM105.316 103.16C108.5 101.951 110.145 98.4212 108.898 95.2451L106.105 96.3415C106.72 97.9067 105.931 99.7177 104.251 100.356L105.316 103.16ZM99.6711 102.576C101.286 103.616 103.375 103.898 105.316 103.16L104.251 100.356C103.229 100.744 102.136 100.595 101.296 100.054L99.6711 102.576ZM97.42 104.083L101.016 102.717L99.9508 99.9124L96.3549 101.278L97.42 104.083ZM92.3547 102.006C93.2101 103.933 95.4502 104.831 97.4201 104.083L96.3549 101.278C95.8346 101.476 95.2888 101.222 95.0967 100.789L92.3547 102.006ZM92.3012 101.879L92.3417 101.976L95.1097 100.819L95.0691 100.722L92.3012 101.879ZM94.5809 96.7598C92.5487 97.5316 91.4833 99.797 92.2889 101.849L95.0814 100.752C94.9072 100.309 95.1204 99.764 95.6461 99.5643L94.5809 96.7598ZM97.8884 95.5034L94.5808 96.7598L95.6461 99.5643L98.9537 98.3078L97.8884 95.5034ZM100.88 91.7712C98.6809 92.6066 97.2209 94.5419 96.934 96.7087L99.9081 97.1025C100.052 96.0147 100.791 95.0143 101.946 94.5757L100.88 91.7712Z" fill="#4C5FEF"/>
<ellipse cx="118.267" cy="64.7034" rx="8.74184" ry="8.68754" transform="rotate(-19 118.267 64.7034)" fill="white" stroke="#4C5FEF" stroke-width="3" stroke-linecap="round"/>
<path d="M135.225 76.9567C131.428 76.0578 127.886 76.5612 123.313 78.136C119.193 79.5544 115.743 81.8355 113.316 84.5002" stroke="#4C5FEF" stroke-width="3" stroke-linecap="round"/>
<path d="M150.657 35.0277C153.504 35.3269 155.62 37.7892 155.463 40.6469C155.071 47.7531 154.281 60.8173 153.311 70.0513C152.464 78.1041 151.179 86.1107 150.299 91.1674C149.682 94.7095 148.507 98.1207 146.895 101.334V101.334C145.485 104.143 141.347 103.709 140.552 100.668V100.668C139.642 97.1889 139.203 93.6077 139.336 90.014C139.526 84.8822 139.934 76.7801 140.78 68.7343C141.75 59.5087 143.694 46.5601 144.789 39.5252C145.229 36.6971 147.811 34.7285 150.657 35.0277V35.0277Z" fill="white" stroke="#4C5FEF" stroke-width="3" stroke-linecap="round"/>
</svg>
