<svg width="500" height="300" viewBox="0 0 500 300" fill="none" xmlns="http://www.w3.org/2000/svg">
<path fill-rule="evenodd" clip-rule="evenodd" d="M128.604 167.913C131.186 168.601 133.997 170.763 136.332 173.929C140.083 172.741 143.628 172.643 146.121 173.605C145.433 176.187 143.271 178.998 140.105 181.333C141.293 185.083 141.391 188.629 140.429 191.122C137.847 190.434 135.036 188.272 132.701 185.106C128.95 186.294 125.405 186.391 122.912 185.43C123.6 182.848 125.762 180.037 128.928 177.701C127.74 173.951 127.642 170.406 128.604 167.913ZM359.707 122.309C361.138 124.507 361.769 127.931 361.393 131.775C364.91 133.372 367.56 135.63 368.747 137.968C366.55 139.4 363.125 140.031 359.282 139.655C357.685 143.172 355.427 145.822 353.088 147.009C351.656 144.812 351.026 141.387 351.401 137.544C347.885 135.947 345.235 133.689 344.048 131.35C346.245 129.918 349.669 129.288 353.513 129.663C355.11 126.147 357.368 123.497 359.707 122.309ZM168.704 72.6855C170.008 76.25 169.782 81.2829 168.002 86.5796C172.439 89.9753 175.441 94.0213 176.354 97.7053C172.789 99.0089 167.756 98.7828 162.46 97.0025C159.064 101.44 155.018 104.442 151.334 105.355C150.03 101.79 150.256 96.7573 152.037 91.4605C147.599 88.0649 144.597 84.0188 143.685 80.3349C147.249 79.0313 152.282 79.2574 157.579 81.0377C160.974 76.5998 165.02 73.598 168.704 72.6855Z" fill="#D5EDF1"/>
<path fill-rule="evenodd" clip-rule="evenodd" d="M222.123 92.0686C220.753 86.5746 224.015 81.0126 229.436 79.5069L229.709 79.4351C235.291 78.0433 240.942 81.4313 242.338 87.0285L246.115 102.177C247.484 107.671 244.222 113.233 238.802 114.739L238.529 114.81C232.947 116.202 227.296 112.814 225.9 107.217L222.123 92.0686Z" fill="white" stroke="#A3BFC6" stroke-width="3" stroke-linecap="round"/>
<circle cx="262.168" cy="207.383" r="15" transform="rotate(-14 262.168 207.383)" fill="white" stroke="#A3BFC6" stroke-width="3" stroke-linecap="round"/>
<path fill-rule="evenodd" clip-rule="evenodd" d="M203.505 207.709C211.491 192.831 211.486 182.605 207.307 165.842L201.836 143.901C197.534 126.156 205.678 113.525 215.026 106.231C217.806 104.063 220.79 102.218 223.907 100.669C230.434 97.4653 237.668 95.5908 244.898 95.2341C248.791 95.0304 252.614 95.2432 256.409 95.8959C267.727 97.8479 280.772 106.461 284.828 123.195L290.302 145.151C294.31 161.225 300.385 171.361 314.937 180.999" fill="#EEFAFC"/>
<path d="M203.505 207.709C211.491 192.831 211.486 182.605 207.307 165.842L201.836 143.901C197.534 126.156 205.678 113.525 215.026 106.231C217.806 104.063 220.79 102.218 223.907 100.669C230.434 97.4653 237.668 95.5908 244.898 95.2341C248.791 95.0304 252.614 95.2432 256.409 95.8959C267.727 97.8479 280.772 106.461 284.828 123.195L290.302 145.151C294.31 161.225 300.385 171.361 314.937 180.999" stroke="#A3BFC6" stroke-width="3" stroke-linecap="round"/>
<path fill-rule="evenodd" clip-rule="evenodd" d="M200.271 215.409C199.227 211.222 201.783 206.98 205.968 205.936L312.081 179.48C316.19 178.455 320.353 180.893 321.494 184.929L321.558 185.168C322.602 189.355 320.045 193.597 315.861 194.64L209.748 221.097C205.638 222.122 201.476 219.684 200.335 215.648L200.271 215.409Z" fill="white" stroke="#A3BFC6" stroke-width="3" stroke-linecap="round"/>
<path d="M262 95.1878C262 77.4185 276.096 63 293.501 63C310.906 63 325.002 77.4185 325.002 95.1878C325.002 109.789 315.078 121.351 299.853 126.709L276.954 134.509C273.175 135.796 270.617 133.29 271.846 129.492L274.612 120.95C266.746 114.922 262 105.461 262 95.1878Z" fill="white" stroke="#A3BFC6" stroke-width="3" stroke-linecap="round"/>
<path fill-rule="evenodd" clip-rule="evenodd" d="M281.5 91C283.433 91 285 92.567 285 94.5C285 96.433 283.433 98 281.5 98C279.567 98 278 96.433 278 94.5C278 92.567 279.567 91 281.5 91ZM293.5 91C295.433 91 297 92.567 297 94.5C297 96.433 295.433 98 293.5 98C291.567 98 290 96.433 290 94.5C290 92.567 291.567 91 293.5 91ZM305.5 91C307.433 91 309 92.567 309 94.5C309 96.433 307.433 98 305.5 98C303.567 98 302 96.433 302 94.5C302 92.567 303.567 91 305.5 91Z" fill="white"/>
<path d="M281.5 92.5C282.605 92.5 283.5 93.3954 283.5 94.5H286.5C286.5 91.7386 284.261 89.5 281.5 89.5V92.5ZM283.5 94.5C283.5 95.6046 282.605 96.5 281.5 96.5V99.5C284.261 99.5 286.5 97.2614 286.5 94.5H283.5ZM281.5 96.5C280.395 96.5 279.5 95.6046 279.5 94.5H276.5C276.5 97.2614 278.739 99.5 281.5 99.5V96.5ZM279.5 94.5C279.5 93.3954 280.395 92.5 281.5 92.5V89.5C278.739 89.5 276.5 91.7386 276.5 94.5H279.5ZM293.5 92.5C294.605 92.5 295.5 93.3954 295.5 94.5H298.5C298.5 91.7386 296.261 89.5 293.5 89.5V92.5ZM295.5 94.5C295.5 95.6046 294.605 96.5 293.5 96.5V99.5C296.261 99.5 298.5 97.2614 298.5 94.5H295.5ZM293.5 96.5C292.395 96.5 291.5 95.6046 291.5 94.5H288.5C288.5 97.2614 290.739 99.5 293.5 99.5V96.5ZM291.5 94.5C291.5 93.3954 292.395 92.5 293.5 92.5V89.5C290.739 89.5 288.5 91.7386 288.5 94.5H291.5ZM305.5 92.5C306.605 92.5 307.5 93.3954 307.5 94.5H310.5C310.5 91.7386 308.261 89.5 305.5 89.5V92.5ZM307.5 94.5C307.5 95.6046 306.605 96.5 305.5 96.5V99.5C308.261 99.5 310.5 97.2614 310.5 94.5H307.5ZM305.5 96.5C304.395 96.5 303.5 95.6046 303.5 94.5H300.5C300.5 97.2614 302.739 99.5 305.5 99.5V96.5ZM303.5 94.5C303.5 93.3954 304.395 92.5 305.5 92.5V89.5C302.739 89.5 300.5 91.7386 300.5 94.5H303.5Z" fill="#A3BFC6"/>
</svg>
