<svg width="31" height="31" viewBox="0 0 31 31" fill="none" xmlns="http://www.w3.org/2000/svg">
<path d="M4.65316 7.83215C5.06464 7.42074 5.71049 7.36007 6.19148 7.68781C8.0034 8.92284 17.0917 15.1332 18.0685 16.1099C19.4849 17.5264 19.4849 19.831 18.0685 21.2475C17.3603 21.9557 16.4299 22.3098 15.4997 22.3098C14.5694 22.3098 13.6391 21.9557 12.9308 21.2475C11.9541 20.2708 5.74385 11.1825 4.50876 9.37053C4.18114 8.8896 4.24175 8.24369 4.65316 7.83215ZM14.6435 19.535C15.1155 20.0072 15.8838 20.0072 16.3559 19.535C16.8281 19.0629 16.8281 18.2948 16.3561 17.8227C15.9766 17.4477 13.3963 15.6074 10.2216 13.4006C12.4283 16.5754 14.2686 19.1556 14.6435 19.535Z" fill="#4F4F4F"/>
<path d="M25.4157 24.311L26.9106 25.0402C28.0044 23.088 28.5781 20.9091 28.5781 18.6786C28.5781 17.0444 28.2768 15.4792 27.7268 14.0357L26.0139 14.8574C25.845 14.9384 25.6667 14.9768 25.491 14.9768C25.0398 14.9768 24.6066 14.7234 24.3983 14.2892C24.1092 13.6863 24.3635 12.9629 24.9665 12.6737L26.6577 11.8625C24.5557 8.4343 20.9188 6.04421 16.7109 5.65611V7.47742C16.7109 8.14622 16.1687 8.68835 15.4999 8.68835C14.8311 8.68835 14.289 8.14622 14.289 7.47742V5.6552C12.8463 5.78652 11.4503 6.15392 10.1251 6.75213C9.51573 7.02731 8.79843 6.75612 8.52324 6.14672C8.24806 5.53713 8.51913 4.81995 9.12871 4.54477C11.1368 3.63832 13.2804 3.17865 15.5 3.17865C19.6402 3.17865 23.5326 4.79089 26.4602 7.71845C29.3877 10.6461 31 14.5385 31 18.6786C31 21.7381 30.0919 24.7136 28.3739 27.2833C28.1425 27.6293 27.7599 27.8213 27.3665 27.8213C27.1876 27.8213 27.0064 27.7816 26.8363 27.6986L24.3538 26.4877C23.7527 26.1945 23.5031 25.4695 23.7964 24.8684C24.0896 24.2674 24.8146 24.0179 25.4157 24.311Z" fill="#4F4F4F"/>
<path d="M1.36663 12.3075C1.64175 11.6979 2.3588 11.4267 2.96857 11.702C3.57809 11.9772 3.84915 12.6944 3.57397 13.3039C2.80975 14.9966 2.42232 16.805 2.42232 18.6787C2.42232 20.9125 2.99787 23.0949 4.09491 25.0493L5.65562 24.3061C6.25932 24.0186 6.98194 24.2749 7.26954 24.8788C7.55708 25.4826 7.30066 26.2052 6.69683 26.4927L4.15388 27.7037C3.98659 27.7833 3.80925 27.8214 3.63391 27.8214C3.24036 27.8214 2.8577 27.6291 2.6266 27.2834C0.908535 24.7136 0.000459671 21.7381 0.000459671 18.6787C0.000459671 16.4591 0.460128 14.3155 1.36663 12.3075Z" fill="#4F4F4F"/>
</svg>
