<svg width="462" height="269" viewBox="0 0 462 269" fill="none" xmlns="http://www.w3.org/2000/svg">
<path d="M143.24 58.81V207H115.429V64.9L143.24 58.81ZM145.502 207L186.102 153.205L146.517 101.237H178.794L202.139 132.702L225.281 101.237H256.543L217.567 152.799L258.979 207H226.499L201.53 173.302L176.561 207H145.502ZM275.155 88.651C270.824 88.651 267.103 87.0947 263.99 83.982C260.877 80.8693 259.321 77.1477 259.321 72.817C259.321 68.4863 260.877 64.7647 263.99 61.652C267.103 58.5393 270.824 56.983 275.155 56.983C279.486 56.983 283.207 58.5393 286.32 61.652C289.433 64.7647 290.989 68.4863 290.989 72.817C290.989 77.1477 289.433 80.8693 286.32 83.982C283.207 87.0947 279.486 88.651 275.155 88.651ZM289.162 101.237V207H261.351V101.237H289.162ZM414.036 154.22C414.036 161.799 412.615 168.904 409.773 175.535C406.931 182.166 403.074 187.918 398.202 192.79C393.33 197.662 387.51 201.519 380.744 204.361C374.112 207.068 367.007 208.421 359.429 208.421C354.151 208.421 349.008 207.677 344.001 206.188C338.993 204.699 334.392 202.602 330.197 199.895V207H302.792V64.9L330.603 58.81V109.56C334.798 106.447 339.399 104.079 344.407 102.455C349.549 100.696 354.827 99.816 360.241 99.816C367.684 99.816 374.654 101.237 381.15 104.079C387.781 106.921 393.533 110.778 398.405 115.65C403.277 120.522 407.066 126.274 409.773 132.905C412.615 139.536 414.036 146.641 414.036 154.22ZM355.775 123.567C350.767 123.567 346.098 124.447 341.768 126.206C337.437 127.83 333.715 130.266 330.603 133.514V175.129C333.58 178.106 337.234 180.475 341.565 182.234C346.031 183.993 350.767 184.873 355.775 184.873C364.436 184.873 371.744 181.963 377.699 176.144C383.653 170.189 386.631 162.881 386.631 154.22C386.631 145.559 383.586 138.318 377.496 132.499C371.541 126.544 364.301 123.567 355.775 123.567ZM450.745 58.81V207H422.934V64.9L450.745 58.81Z" fill="#120E21"/>
<rect y="65" width="30" height="142" fill="#121217"/>
<path d="M0 65C0 65 78.5 65 85.5 65C92.5 65 97 54 97 54L108 77.5C104 89 92.5 91 88.5 91H0V65Z" fill="#121217"/>
<rect y="124" width="83" height="25" fill="#121217"/>
</svg>
