<svg width="522" height="154" viewBox="0 0 522 154" fill="none" xmlns="http://www.w3.org/2000/svg">
<path d="M165.884 4.79688V152.583H133.676V10.8703L165.884 4.79688Z" fill="url(#paint0_linear)"/>
<path d="M168.503 152.583L215.521 98.9345L169.678 47.1082H207.058L234.093 78.4874L260.893 47.1082H297.097L251.96 98.5296L299.918 152.583H262.304L233.388 118.977L204.472 152.583H168.503Z" fill="url(#paint1_linear)"/>
<path d="M318.652 34.5565C313.637 34.5565 309.327 33.0044 305.722 29.9003C302.117 26.7961 300.315 23.0846 300.315 18.7657C300.315 14.4468 302.117 10.7353 305.722 7.63113C309.327 4.52695 313.637 2.97486 318.652 2.97486C323.667 2.97486 327.977 4.52695 331.582 7.63113C335.187 10.7353 336.989 14.4468 336.989 18.7657C336.989 23.0846 335.187 26.7961 331.582 29.9003C327.977 33.0044 323.667 34.5565 318.652 34.5565ZM334.873 47.1082V152.583H302.666V47.1082H334.873Z" fill="url(#paint2_linear)"/>
<path d="M479.487 99.9468C479.487 107.505 477.842 114.59 474.55 121.204C471.259 127.817 466.792 133.553 461.15 138.412C455.508 143.27 448.769 147.117 440.932 149.951C433.253 152.65 425.025 154 416.248 154C410.135 154 404.18 153.258 398.381 151.773C392.582 150.288 387.253 148.197 382.395 145.497V152.583H350.658V10.8703L382.865 4.79688V55.4085C387.724 52.3043 393.052 49.9425 398.851 48.3229C404.807 46.5684 410.919 45.6911 417.188 45.6911C425.808 45.6911 433.88 47.1082 441.402 49.9425C449.082 52.7767 455.743 56.6232 461.385 61.4819C467.027 66.3406 471.416 72.0766 474.55 78.6899C477.842 85.3031 479.487 92.3887 479.487 99.9468ZM412.016 69.3773C406.217 69.3773 400.81 70.2546 395.795 72.0091C390.78 73.6287 386.47 76.0581 382.865 79.2972V120.799C386.313 123.768 390.545 126.13 395.56 127.884C400.732 129.639 406.217 130.516 412.016 130.516C422.047 130.516 430.51 127.614 437.406 121.811C444.302 115.873 447.75 108.584 447.75 99.9468C447.75 91.309 444.224 84.0884 437.171 78.285C430.275 72.3465 421.89 69.3773 412.016 69.3773Z" fill="url(#paint3_linear)"/>
<path d="M522 4.79688V152.583H489.793V10.8703L522 4.79688Z" fill="url(#paint4_linear)"/>
<path d="M0 10.97H34.7425V152.583H0V10.97Z" fill="url(#paint5_linear)"/>
<path d="M0 10.97C0 10.97 90.9094 10.97 99.016 10.97C107.123 10.97 112.334 0 112.334 0L125.073 23.4359C120.44 34.9046 107.123 36.8991 102.49 36.8991H0V10.97Z" fill="url(#paint6_linear)"/>
<path d="M0 69.8092H96.1208V94.741H0V69.8092Z" fill="url(#paint7_linear)"/>
<defs>
<linearGradient id="paint0_linear" x1="-224.372" y1="77.7861" x2="-146.221" y2="342.69" gradientUnits="userSpaceOnUse">
<stop stop-color="#6C7580"/>
<stop offset="1" stop-color="#262B34"/>
</linearGradient>
<linearGradient id="paint1_linear" x1="-224.372" y1="77.7861" x2="-146.221" y2="342.69" gradientUnits="userSpaceOnUse">
<stop stop-color="#6C7580"/>
<stop offset="1" stop-color="#262B34"/>
</linearGradient>
<linearGradient id="paint2_linear" x1="-224.372" y1="77.7861" x2="-146.221" y2="342.69" gradientUnits="userSpaceOnUse">
<stop stop-color="#6C7580"/>
<stop offset="1" stop-color="#262B34"/>
</linearGradient>
<linearGradient id="paint3_linear" x1="-224.372" y1="77.7861" x2="-146.221" y2="342.69" gradientUnits="userSpaceOnUse">
<stop stop-color="#6C7580"/>
<stop offset="1" stop-color="#262B34"/>
</linearGradient>
<linearGradient id="paint4_linear" x1="-224.372" y1="77.7861" x2="-146.221" y2="342.69" gradientUnits="userSpaceOnUse">
<stop stop-color="#6C7580"/>
<stop offset="1" stop-color="#262B34"/>
</linearGradient>
<linearGradient id="paint5_linear" x1="-224.372" y1="77.7861" x2="-146.221" y2="342.69" gradientUnits="userSpaceOnUse">
<stop stop-color="#6C7580"/>
<stop offset="1" stop-color="#262B34"/>
</linearGradient>
<linearGradient id="paint6_linear" x1="-224.372" y1="77.7861" x2="-146.221" y2="342.69" gradientUnits="userSpaceOnUse">
<stop stop-color="#6C7580"/>
<stop offset="1" stop-color="#262B34"/>
</linearGradient>
<linearGradient id="paint7_linear" x1="-224.372" y1="77.7861" x2="-146.221" y2="342.69" gradientUnits="userSpaceOnUse">
<stop stop-color="#6C7580"/>
<stop offset="1" stop-color="#262B34"/>
</linearGradient>
</defs>
</svg>
