<svg width="532" height="331" viewBox="0 0 532 331" fill="none" xmlns="http://www.w3.org/2000/svg">
<path d="M166.951 74.5V255H141.951V80L166.951 74.5ZM172.145 255L221.645 189.75L174.145 127.75H203.395L236.145 171.5L268.895 127.75H297.145L250.145 189.5L300.395 255H270.895L235.895 208L200.395 255H172.145ZM318.045 107.25C313.878 107.25 310.295 105.75 307.295 102.75C304.295 99.5833 302.795 95.9167 302.795 91.75C302.795 87.5833 304.295 84 307.295 81C310.295 77.8333 313.878 76.25 318.045 76.25C322.212 76.25 325.795 77.8333 328.795 81C331.962 84 333.545 87.5833 333.545 91.75C333.545 95.9167 331.962 99.5833 328.795 102.75C325.795 105.75 322.212 107.25 318.045 107.25ZM330.545 127.75V255H305.545V127.75H330.545ZM477.988 191.25C477.988 200.417 476.322 209.083 472.988 217.25C469.655 225.25 465.072 232.167 459.238 238C453.572 243.833 446.738 248.5 438.738 252C430.738 255.333 422.238 257 413.238 257C406.072 257 399.238 255.917 392.738 253.75C386.238 251.583 380.238 248.417 374.738 244.25V255H349.988V80L374.988 74.5V139.75C380.155 135.25 386.072 131.833 392.738 129.5C399.405 127 406.405 125.75 413.738 125.75C422.738 125.75 431.155 127.5 438.988 131C446.822 134.333 453.572 138.917 459.238 144.75C465.072 150.583 469.655 157.5 472.988 165.5C476.322 173.5 477.988 182.083 477.988 191.25ZM410.488 147.5C403.322 147.5 396.655 148.833 390.488 151.5C384.322 154.167 379.155 157.917 374.988 162.75V220.25C378.988 224.917 384.072 228.583 390.238 231.25C396.572 233.917 403.322 235.25 410.488 235.25C422.655 235.25 432.822 231.083 440.988 222.75C449.322 214.417 453.488 204 453.488 191.5C453.488 179 449.322 168.583 440.988 160.25C432.655 151.75 422.488 147.5 410.488 147.5ZM516.844 74.5V255H491.844V80L516.844 74.5Z" fill="#121217"/>
<path d="M13.4058 81.4984C113 81.4984 101.5 86.498 117 60.998L130.506 77.2253C125 86.498 120.506 102.725 93.0062 102.725L13.4 102.726L13.4058 81.4984Z" fill="#121217"/>
<rect x="39.4453" y="101.945" width="153" height="26" transform="rotate(90 39.4453 101.945)" fill="#121217"/>
<rect x="39.4453" y="156.945" width="68" height="22" fill="#121217"/>
</svg>
