<svg width="36" height="36" viewBox="0 0 36 36" fill="none" xmlns="http://www.w3.org/2000/svg">
<path fill-rule="evenodd" clip-rule="evenodd" d="M24.2118 6.29999H11.7882C11.0515 6.30038 10.3288 6.50471 9.70264 6.89C9.07717 7.2749 8.57218 7.82515 8.24431 8.47898L8.24329 8.48101L3.74288 17.4002C3.64893 17.5864 3.60001 17.7917 3.60001 18V25.7702C3.60001 26.8125 4.01722 27.812 4.75986 28.549C5.50251 29.286 6.50975 29.7 7.56001 29.7H28.44C29.4903 29.7 30.4975 29.286 31.2401 28.549C31.9828 27.812 32.4 26.8125 32.4 25.7702V18C32.4 17.7917 32.3511 17.5864 32.2571 17.4002L27.7567 8.48101L27.7557 8.47896C27.4278 7.82514 26.9228 7.2749 26.2974 6.89C25.6713 6.50471 24.9485 6.30038 24.2118 6.29999ZM10.6594 9.677L9.45226 9.07717L10.6612 9.67334C10.7655 9.46502 10.9263 9.2897 11.1256 9.16711C11.3247 9.04457 11.5543 8.97956 11.7886 8.97938H24.2114C24.4457 8.97956 24.6753 9.04457 24.8745 9.16711C25.0737 9.2897 25.2345 9.46502 25.3388 9.67334L25.3406 9.677L28.8643 16.6604H23.22C22.7686 16.6604 22.3471 16.8842 22.0967 17.2569L19.8875 20.5455H16.1125L13.9033 17.2569C13.6529 16.8842 13.2314 16.6604 12.78 16.6604H7.13573L10.6594 9.677ZM6.30001 19.3398V25.7702C6.30001 26.1018 6.43276 26.4199 6.66905 26.6544C6.90535 26.8889 7.22583 27.0206 7.56001 27.0206H28.44C28.7742 27.0206 29.0947 26.8889 29.331 26.6544C29.5673 26.4199 29.7 26.1018 29.7 25.7702V19.3398H23.9425L21.7333 22.6283C21.4829 23.001 21.0614 23.2249 20.61 23.2249H15.39C14.9386 23.2249 14.5171 23.001 14.2667 22.6283L12.0575 19.3398H6.30001Z" fill="#898994"/>
</svg>
