<svg width="500" height="300" viewBox="0 0 500 300" fill="none" xmlns="http://www.w3.org/2000/svg">
<path fill-rule="evenodd" clip-rule="evenodd" d="M343.506 186.814C346.088 187.502 348.899 189.664 351.234 192.83C354.985 191.642 358.53 191.544 361.023 192.506C360.335 195.088 358.173 197.899 355.007 200.234C356.195 203.985 356.293 207.53 355.331 210.023C352.749 209.335 349.938 207.173 347.603 204.007C343.852 205.195 340.307 205.293 337.814 204.331C338.502 201.749 340.664 198.938 343.83 196.603C342.642 192.852 342.544 189.307 343.506 186.814ZM75.9682 142.309C77.4001 144.507 78.0303 147.931 77.6549 151.775C81.1713 153.371 83.8217 155.629 85.0089 157.968C82.8113 159.4 79.387 160.03 75.5434 159.655C73.9467 163.171 71.6888 165.822 69.3499 167.009C67.9179 164.811 67.2877 161.387 67.6631 157.543C64.1468 155.947 61.4964 153.689 60.3091 151.35C62.5068 149.918 65.931 149.288 69.7746 149.663C71.3713 146.147 73.6292 143.496 75.9682 142.309ZM176.705 39.6852C178.009 43.2497 177.782 48.2825 176.002 53.5793C180.44 56.975 183.442 61.021 184.354 64.705C180.79 66.0085 175.757 65.7825 170.46 64.0022C167.065 68.44 163.019 71.4418 159.335 72.3543C158.031 68.7899 158.257 63.757 160.037 58.4602C155.6 55.0646 152.598 51.0185 151.685 47.3345C155.25 46.031 160.283 46.257 165.579 48.0374C168.975 43.5995 173.021 40.5977 176.705 39.6852Z" fill="#E0E2FF"/>
<path fill-rule="evenodd" clip-rule="evenodd" d="M250.114 172.965C255.437 172.965 259.752 177.279 259.752 182.602C259.752 182.867 259.741 183.131 259.719 183.395L255.558 233.785C255.314 236.732 252.851 239 249.894 239C246.942 239 244.488 236.726 244.265 233.782L240.44 183.401C240.035 178.058 244.037 173.398 249.38 172.992C249.624 172.974 249.869 172.965 250.114 172.965Z" fill="#E6E9FF" stroke="#828FF4" stroke-width="3" stroke-linecap="round"/>
<path d="M191.78 93.7219H292.983C310.408 93.7219 324.831 107.27 325.919 124.661L328.76 170.082C329.14 176.146 324.532 181.368 318.469 181.748C318.24 181.762 318.011 181.769 317.782 181.769H191.78V93.7219Z" fill="white" stroke="#7E86EE" stroke-width="3" stroke-linecap="round"/>
<path fill-rule="evenodd" clip-rule="evenodd" d="M191.78 93.7219C207.261 93.7219 220.075 105.759 221.042 121.211L224.831 181.769H158.729L162.518 121.211C163.484 105.759 176.298 93.7219 191.78 93.7219Z" fill="#E6E9FF" stroke="#828FF4" stroke-width="3" stroke-linecap="round"/>
<path d="M144.953 171.864H224.28L225.381 181.769H144.953C142.217 181.769 140 179.552 140 176.817C140 174.081 142.217 171.864 144.953 171.864Z" fill="white" stroke="#7E86EE" stroke-width="3" stroke-linecap="round"/>
<path fill-rule="evenodd" clip-rule="evenodd" d="M305.313 55.1634C303.518 54.8469 301.807 56.0454 301.49 57.8403L292.803 107.112C288.157 107.717 284.24 111.262 283.384 116.116C282.328 122.102 286.33 127.811 292.322 128.868C298.314 129.924 304.028 125.928 305.083 119.942C305.939 115.089 303.47 110.418 299.312 108.26L305.325 74.1641L328.113 78.1824C329.908 78.4989 331.62 77.3004 331.936 75.5056L334.039 63.5795C334.356 61.7846 333.157 60.073 331.362 59.7566L305.313 55.1634Z" fill="#E6E9FF" stroke="#828FF4" stroke-width="3" stroke-linecap="round"/>
<mask id="mask0" mask-type="alpha" maskUnits="userSpaceOnUse" x="162" y="110" width="62" height="62">
<path fill-rule="evenodd" clip-rule="evenodd" d="M162.034 110.231H218.598L223.034 171.864H162.034V110.231Z" fill="white"/>
</mask>
<g mask="url(#mask0)">
<path d="M181.346 123.171L227.312 134.631L221.454 158.126C220.719 161.074 217.732 162.868 214.783 162.133L179.497 153.335C176.548 152.6 174.752 149.62 175.488 146.665L181.346 123.171Z" fill="white" stroke="#7E86EE" stroke-width="3" stroke-linecap="round"/>
<path d="M182.144 119.973C182.88 117.021 185.867 115.223 188.816 115.959L224.102 124.756C227.051 125.492 228.846 128.477 228.109 131.433L225.284 142.764L200.419 149.477L179.318 131.303L182.144 119.973Z" fill="white" stroke="#7E86EE" stroke-width="3" stroke-linecap="round"/>
</g>
</svg>
