<svg width="40" height="27" viewBox="0 0 40 27" fill="none" xmlns="http://www.w3.org/2000/svg">
<path d="M29.35 6.54166C29.35 8.36617 30.8422 9.85833 32.6667 9.85833C34.4912 9.85833 35.9833 8.36617 35.9833 6.54166C35.9833 4.71716 34.4912 3.225 32.6667 3.225C30.8422 3.225 29.35 4.71716 29.35 6.54166ZM31.2333 6.54166C31.2333 6.10075 31.3796 5.74498 31.6248 5.49981C31.87 5.25465 32.2258 5.10833 32.6667 5.10833C33.1076 5.10833 33.4633 5.25465 33.7085 5.49981C33.9537 5.74498 34.1 6.10075 34.1 6.54166C34.1 6.98258 33.9537 7.33835 33.7085 7.58351C33.4633 7.82868 33.1076 7.97499 32.6667 7.97499C32.2258 7.97499 31.87 7.82868 31.6248 7.58351C31.3796 7.33835 31.2333 6.98258 31.2333 6.54166Z" fill="#4F4F4F" stroke="#4F4F4F" stroke-width="0.3"/>
<path d="M37.2667 20.8332C37.2667 21.1048 37.3579 21.3427 37.5283 21.5132C37.6988 21.6836 37.9367 21.7748 38.2083 21.7748C38.4799 21.7748 38.7179 21.6836 38.8884 21.5132C39.0588 21.3427 39.15 21.1048 39.15 20.8332V15.2498C39.15 12.9503 37.3412 11.1415 35.0417 11.1415H30.2917C30.0201 11.1415 29.7821 11.2327 29.6116 11.4031C29.4412 11.5736 29.35 11.8116 29.35 12.0832C29.35 12.3548 29.4412 12.5927 29.6116 12.7632C29.7821 12.9337 30.0201 13.0248 30.2917 13.0248H35.0417C36.2255 13.0248 37.2667 14.066 37.2667 15.2498V20.8332Z" fill="#4F4F4F" stroke="#4F4F4F" stroke-width="0.3"/>
<path d="M4.01699 6.54166C4.01699 8.36617 5.50915 9.85833 7.33366 9.85833C9.15817 9.85833 10.6503 8.36617 10.6503 6.54166C10.6503 4.71716 9.15817 3.225 7.33366 3.225C5.50915 3.225 4.01699 4.71716 4.01699 6.54166ZM5.90033 6.54166C5.90033 6.10075 6.04664 5.74498 6.29181 5.49981C6.53697 5.25465 6.89275 5.10833 7.33366 5.10833C7.77457 5.10833 8.13034 5.25465 8.37551 5.49981C8.62068 5.74498 8.76699 6.10075 8.76699 6.54166C8.76699 6.98258 8.62068 7.33835 8.37551 7.58351C8.13034 7.82868 7.77457 7.97499 7.33366 7.97499C6.89275 7.97499 6.53697 7.82868 6.29181 7.58351C6.04664 7.33835 5.90033 6.98258 5.90033 6.54166Z" fill="#4F4F4F" stroke="#4F4F4F" stroke-width="0.3"/>
<path d="M0.85 20.8332C0.85 21.1048 0.941184 21.3427 1.11164 21.5132C1.2821 21.6836 1.52008 21.7748 1.79167 21.7748C2.06325 21.7748 2.30123 21.6836 2.47169 21.5132C2.64215 21.3427 2.73333 21.1048 2.73333 20.8332V15.2498C2.73333 14.066 3.77451 13.0248 4.95833 13.0248H9.70833C9.97992 13.0248 10.2179 12.9337 10.3884 12.7632C10.5588 12.5927 10.65 12.3548 10.65 12.0832C10.65 11.8116 10.5588 11.5736 10.3884 11.4031C10.2179 11.2327 9.97992 11.1415 9.70833 11.1415H4.95833C2.65882 11.1415 0.85 12.9503 0.85 15.2498V20.8332Z" fill="#4F4F4F" stroke="#4F4F4F" stroke-width="0.3"/>
<path d="M15.1 5.75C15.1 8.52451 17.2255 10.65 20 10.65C22.7745 10.65 24.9 8.52451 24.9 5.75C24.9 2.97549 22.7745 0.85 20 0.85C17.2255 0.85 15.1 2.97549 15.1 5.75ZM16.9833 5.75C16.9833 4.09118 18.3412 2.73333 20 2.73333C21.6588 2.73333 23.0167 4.09118 23.0167 5.75C23.0167 7.40882 21.6588 8.76667 20 8.76667C18.3412 8.76667 16.9833 7.40882 16.9833 5.75Z" fill="#4F4F4F" stroke="#4F4F4F" stroke-width="0.3"/>
<path d="M26.9753 25C26.9753 25.2716 27.0665 25.5096 27.237 25.68C27.4074 25.8505 27.6454 25.9417 27.917 25.9417C28.1886 25.9417 28.4265 25.8505 28.597 25.68C28.7675 25.5096 28.8586 25.2716 28.8586 25V16.8333C28.8586 14.5338 27.0498 12.725 24.7503 12.725H15.2503C12.9508 12.725 11.142 14.5338 11.142 16.8333V25C11.142 25.2716 11.2332 25.5096 11.4036 25.68C11.5741 25.8505 11.8121 25.9417 12.0837 25.9417C12.3552 25.9417 12.5932 25.8505 12.7637 25.68C12.9341 25.5096 13.0253 25.2716 13.0253 25V16.8333C13.0253 15.6495 14.0665 14.6083 15.2503 14.6083H24.7503C25.9341 14.6083 26.9753 15.6495 26.9753 16.8333V25Z" fill="#4F4F4F" stroke="#4F4F4F" stroke-width="0.3"/>
</svg>
