<svg width="19" height="27" viewBox="0 0 19 27" fill="none" xmlns="http://www.w3.org/2000/svg">
<path d="M4.80801 5.75C4.80801 8.52451 6.9335 10.65 9.70801 10.65C12.4825 10.65 14.608 8.52451 14.608 5.75C14.608 2.97549 12.4825 0.85 9.70801 0.85C6.9335 0.85 4.80801 2.97549 4.80801 5.75ZM6.69134 5.75C6.69134 4.09118 8.04918 2.73333 9.70801 2.73333C11.3668 2.73333 12.7247 4.09118 12.7247 5.75C12.7247 7.40882 11.3668 8.76667 9.70801 8.76667C8.04918 8.76667 6.69134 7.40882 6.69134 5.75Z" fill="#2F80ED" stroke="#2F80ED" stroke-width="0.3"/>
<path d="M16.6833 25C16.6833 25.2716 16.7745 25.5096 16.945 25.68C17.1154 25.8505 17.3534 25.9417 17.625 25.9417C17.8966 25.9417 18.1346 25.8505 18.305 25.68C18.4755 25.5096 18.5667 25.2716 18.5667 25V16.8333C18.5667 14.5338 16.7578 12.725 14.4583 12.725H4.95833C2.65882 12.725 0.85 14.5338 0.85 16.8333V25C0.85 25.2716 0.941184 25.5096 1.11164 25.68C1.2821 25.8505 1.52008 25.9417 1.79167 25.9417C2.06325 25.9417 2.30123 25.8505 2.47169 25.68C2.64215 25.5096 2.73333 25.2716 2.73333 25V16.8333C2.73333 15.6495 3.77451 14.6083 4.95833 14.6083H14.4583C15.6421 14.6083 16.6833 15.6495 16.6833 16.8333V25Z" fill="#2F80ED" stroke="#2F80ED" stroke-width="0.3"/>
</svg>
