<svg width="500" height="300" viewBox="0 0 500 300" fill="none" xmlns="http://www.w3.org/2000/svg">
<path fill-rule="evenodd" clip-rule="evenodd" d="M156.959 215.586C159.534 216.083 162.435 218.008 164.939 220.948C168.53 219.528 171.996 219.19 174.503 219.961C174.006 222.536 172.081 225.437 169.141 227.941C170.561 231.532 170.899 234.998 170.129 237.505C167.553 237.008 164.652 235.083 162.148 232.143C158.557 233.563 155.091 233.901 152.584 233.131C153.081 230.555 155.006 227.654 157.946 225.15C156.526 221.559 156.188 218.093 156.959 215.586ZM354.027 109.718C355.93 113.002 356.581 117.998 355.748 123.523C360.708 126.097 364.367 129.56 365.905 133.029C362.621 134.932 357.626 135.583 352.1 134.75C349.527 139.71 346.063 143.369 342.594 144.907C340.691 141.623 340.04 136.628 340.873 131.102C335.913 128.529 332.254 125.065 330.716 121.596C334 119.693 338.996 119.042 344.521 119.875C347.095 114.915 350.558 111.256 354.027 109.718ZM130.744 107.367C132.869 108.906 134.684 111.877 135.711 115.599C139.566 115.83 142.85 116.988 144.796 118.746C143.258 120.871 140.287 122.686 136.564 123.713C136.333 127.568 135.175 130.852 133.417 132.798C131.293 131.26 129.477 128.289 128.45 124.566C124.595 124.335 121.312 123.177 119.365 121.419C120.904 119.295 123.875 117.479 127.598 116.452C127.828 112.597 128.986 109.314 130.744 107.367Z" fill="#E0E2FF"/>
<path fill-rule="evenodd" clip-rule="evenodd" d="M302.474 169.801C299.6 161.907 289.17 158.086 281.149 158.139C279.74 158.148 284.24 170.668 294.649 195.697L295.981 198.891L312.999 194L302.474 169.801ZM276.118 201.754C267.719 200.903 245.542 198.658 248.768 208.518C251.47 216.774 257.206 223.226 264.009 227.614C273.898 233.993 286.61 235.82 298.592 231.459C316.796 224.833 286.363 206.272 280.094 202.626L278.999 202C278.552 202 277.53 201.897 276.118 201.754Z" fill="white"/>
<path d="M281.149 158.139L281.139 156.639L281.139 156.639L281.149 158.139ZM302.474 169.801L301.064 170.314L301.08 170.357L301.098 170.399L302.474 169.801ZM294.649 195.697L293.264 196.273L293.265 196.274L294.649 195.697ZM295.981 198.891L294.597 199.468L295.111 200.702L296.395 200.333L295.981 198.891ZM312.999 194L313.414 195.442L315.057 194.97L314.375 193.402L312.999 194ZM248.768 208.518L250.194 208.052L248.768 208.518ZM276.118 201.754L275.967 203.246L276.118 201.754ZM264.009 227.614L263.196 228.875L264.009 227.614ZM280.094 202.626L280.848 201.33L280.839 201.324L280.094 202.626ZM278.999 202L279.744 200.698L279.398 200.5L278.999 200.5L278.999 202ZM281.158 159.639C284.951 159.614 289.334 160.51 293.084 162.338C296.842 164.17 299.805 166.855 301.064 170.314L303.883 169.288C302.269 164.853 298.58 161.68 294.399 159.642C290.21 157.599 285.367 156.611 281.139 156.639L281.158 159.639ZM296.034 195.121C290.831 182.611 287.116 173.252 284.879 167.028C283.757 163.907 283.023 161.619 282.656 160.132C282.468 159.369 282.402 158.915 282.397 158.696C282.394 158.565 282.419 158.676 282.334 158.875C282.283 158.994 282.171 159.196 281.942 159.37C281.696 159.558 281.412 159.637 281.158 159.639L281.139 156.639C280.797 156.641 280.437 156.746 280.125 156.983C279.831 157.207 279.666 157.483 279.574 157.699C279.405 158.095 279.392 158.501 279.398 158.762C279.41 159.327 279.545 160.048 279.744 160.851C280.149 162.496 280.927 164.904 282.055 168.043C284.319 174.339 288.058 183.754 293.264 196.273L296.034 195.121ZM297.365 198.314L296.034 195.12L293.265 196.274L294.597 199.468L297.365 198.314ZM312.585 192.559L295.567 197.449L296.395 200.333L313.414 195.442L312.585 192.559ZM301.098 170.399L311.624 194.599L314.375 193.402L303.849 169.203L301.098 170.399ZM250.194 208.052C249.868 207.056 249.908 206.362 250.085 205.865C250.264 205.365 250.645 204.884 251.327 204.432C252.757 203.486 255.171 202.891 258.22 202.613C264.241 202.064 271.737 202.818 275.967 203.246L276.269 200.261C272.099 199.839 264.307 199.045 257.947 199.626C254.805 199.912 251.755 200.552 249.671 201.931C248.597 202.642 247.709 203.597 247.26 204.858C246.809 206.122 246.862 207.515 247.343 208.985L250.194 208.052ZM264.823 226.354C258.252 222.115 252.769 215.922 250.194 208.052L247.343 208.985C250.171 217.627 256.16 224.336 263.196 228.875L264.823 226.354ZM298.079 230.049C286.553 234.244 274.33 232.487 264.823 226.354L263.196 228.875C273.465 235.499 286.666 237.396 299.105 232.868L298.079 230.049ZM279.34 203.923C282.471 205.744 291.504 211.218 297.476 217.003C298.961 218.441 300.223 219.867 301.152 221.23C302.088 222.605 302.627 223.833 302.778 224.884C302.921 225.881 302.723 226.745 302.099 227.543C301.438 228.389 300.208 229.274 298.079 230.049L299.105 232.868C301.527 231.987 303.328 230.842 304.463 229.391C305.634 227.892 305.996 226.19 305.748 224.458C305.507 222.781 304.704 221.117 303.631 219.541C302.551 217.954 301.137 216.372 299.564 214.848C293.303 208.784 283.985 203.154 280.848 201.33L279.34 203.923ZM278.255 203.302L279.349 203.928L280.839 201.324L279.744 200.698L278.255 203.302ZM275.967 203.246C277.321 203.383 278.454 203.5 278.999 203.5L278.999 200.5C278.65 200.5 277.738 200.41 276.269 200.261L275.967 203.246Z" fill="#7E86EE"/>
<path fill-rule="evenodd" clip-rule="evenodd" d="M291.446 55.9505C296.939 56.5278 300.924 61.4484 300.346 66.941L285.712 206.174C285.135 211.667 280.214 215.651 274.722 215.074L195.16 206.712C189.668 206.134 185.683 201.214 186.26 195.721L200.894 56.4882C201.471 50.9956 206.392 47.011 211.885 47.5883L291.446 55.9505ZM287.053 78.6155L212.464 70.7758L199.921 190.118L274.51 197.958L287.053 78.6155Z" fill="#E6E9FF"/>
<path d="M274.722 215.074L274.879 213.582L274.722 215.074ZM195.16 206.712L195.003 208.204L195.16 206.712ZM186.26 195.721L184.768 195.564L186.26 195.721ZM200.894 56.4882L202.386 56.645L200.894 56.4882ZM287.053 78.6155L288.545 78.7723L288.702 77.2805L287.21 77.1237L287.053 78.6155ZM212.464 70.7758L212.621 69.2841L211.129 69.1273L210.972 70.6191L212.464 70.7758ZM199.921 190.118L198.429 189.962L198.272 191.453L199.764 191.61L199.921 190.118ZM274.51 197.958L274.353 199.45L275.845 199.607L276.002 198.115L274.51 197.958ZM291.29 57.4423C295.958 57.933 299.345 62.1155 298.855 66.7842L301.838 67.0978C302.502 60.7813 297.92 55.1226 291.603 54.4587L291.29 57.4423ZM298.855 66.7842L284.221 206.017L287.204 206.331L301.838 67.0978L298.855 66.7842ZM284.221 206.017C283.73 210.686 279.547 214.073 274.879 213.582L274.565 216.566C280.882 217.23 286.54 212.647 287.204 206.331L284.221 206.017ZM274.879 213.582L195.317 205.22L195.003 208.204L274.565 216.566L274.879 213.582ZM195.317 205.22C190.648 204.729 187.261 200.547 187.752 195.878L184.768 195.564C184.105 201.881 188.687 207.54 195.003 208.204L195.317 205.22ZM187.752 195.878L202.386 56.645L199.402 56.3314L184.768 195.564L187.752 195.878ZM202.386 56.645C202.877 51.9763 207.059 48.5893 211.728 49.08L212.041 46.0965C205.725 45.4326 200.066 50.0149 199.402 56.3314L202.386 56.645ZM211.728 49.08L291.29 57.4423L291.603 54.4587L212.041 46.0965L211.728 49.08ZM287.21 77.1237L212.621 69.2841L212.307 72.2676L286.896 80.1073L287.21 77.1237ZM210.972 70.6191L198.429 189.962L201.412 190.275L213.956 70.9326L210.972 70.6191ZM199.764 191.61L274.353 199.45L274.667 196.466L200.077 188.627L199.764 191.61ZM276.002 198.115L288.545 78.7723L285.561 78.4587L273.018 197.801L276.002 198.115Z" fill="#828FF4"/>
<path d="M259.467 63.6495L241.565 61.768" stroke="#7E86EE" stroke-width="3" stroke-linecap="round" stroke-dasharray="1 8 10"/>
<path d="M290.42 176.097C307.364 175.572 311.903 191.058 313.379 195.114C315.475 200.87 316.683 209.938 317.004 222.318L278.253 236.422C272.3 224.644 268.599 215.759 267.149 209.767C266.211 205.888 265.77 201.324 265.827 196.075C265.892 190.026 263.255 184.274 258.624 180.369L246.746 170.352C243.066 167.249 242.618 161.763 245.743 158.07C248.843 154.407 254.332 153.914 258.003 156.968C258.016 156.979 273.269 169.828 273.269 169.828C277.552 173.436 284.815 176.702 290.42 176.097Z" fill="white" stroke="#7E86EE" stroke-width="3" stroke-linecap="round"/>
<path fill-rule="evenodd" clip-rule="evenodd" d="M277.446 232.44L315.317 215.596C317.835 214.476 320.772 215.551 321.984 217.997L322.091 218.226L324.935 224.745C327.433 230.471 326.044 237.151 321.471 241.407C318.134 244.512 314.013 247.183 309.108 249.419C303.638 251.912 298.111 253.447 292.526 254.023C286.173 254.678 280.123 251.162 277.547 245.319L274.842 239.183C273.704 236.602 274.868 233.586 277.446 232.44Z" fill="#E6E9FF" stroke="#828FF4" stroke-width="3" stroke-linecap="round"/>
<path d="M218.176 100.45C213.877 83.2089 196.712 72.6288 179.824 76.8395C162.935 81.0502 152.747 98.4504 157.045 115.692C160.578 129.859 173.004 138.677 189.073 140.192L213.178 142.221C217.157 142.556 219.033 139.506 216.921 136.118L212.171 128.498C218.344 120.747 220.661 110.418 218.176 100.45Z" fill="white" stroke="#7E86EE" stroke-width="3" stroke-linecap="round"/>
<path d="M199.826 100.537L184.587 119.145L176.687 113.683" fill="white"/>
<path d="M199.826 100.537L184.587 119.145L176.687 113.683" stroke="#7E86EE" stroke-width="3" stroke-linecap="round"/>
</svg>
