<svg width="24" height="24" viewBox="0 0 24 24" fill="none" xmlns="http://www.w3.org/2000/svg">
<path fill-rule="evenodd" clip-rule="evenodd" d="M24.9471 8.7745C24.8181 8.38679 24.4703 8.10835 24.018 8.02816L16.9792 6.79367C16.9601 6.78574 16.9256 6.76283 16.9093 6.74521L13.5171 0.629141C13.3 0.234386 12.9194 0 12.4998 0C12.0793 0 11.6997 0.235267 11.4826 0.62826L8.09493 6.7408C8.08858 6.74811 8.07758 6.75759 8.06786 6.76596C8.0553 6.77678 8.04491 6.78574 8.04951 6.78574L0.981678 8.02816C0.530289 8.10835 0.183345 8.38591 0.0534684 8.77185C-0.0773165 9.1578 0.0353039 9.58163 0.353184 9.90677L5.32937 14.9769L4.36392 21.8834C4.30307 22.3257 4.46746 22.7319 4.80623 22.9698C4.99514 23.1038 5.21947 23.1707 5.45107 23.1707C5.63544 23.1707 5.82617 23.1284 6.01054 23.0421L12.4526 20.0285C12.4624 20.0263 12.4771 20.025 12.4903 20.0238H12.4903C12.5077 20.0223 12.5224 20.021 12.5198 20.018L18.9919 23.043C19.406 23.2359 19.8556 23.2086 20.1934 22.9698C20.5313 22.7319 20.6975 22.3257 20.6357 21.8825L19.673 15.0051C19.6735" fill="white"/>
<mask id="mask0" mask-type="alpha" maskUnits="userSpaceOnUse" x="0" y="0" width="157" height="24">
<path fill-rule="evenodd" clip-rule="evenodd" d="M24.9471 8.7745C24.8181 8.38679 24.4703 8.10835 24.018 8.02816L16.9792 6.79367C16.9601 6.78574 16.9256 6.76283 16.9093 6.74521L13.5171 0.629141C13.3 0.234386 12.9194 0 12.4998 0C12.0793 0 11.6997 0.235267 11.4826 0.62826L8.09493 6.7408C8.08858 6.74811 8.07758 6.75759 8.06786 6.76596C8.0553 6.77678 8.04491 6.78574 8.04951 6.78574L0.981678 8.02816C0.530289 8.10835 0.183345 8.38591 0.0534684 8.77185C-0.0773165 9.1578 0.0353039 9.58163 0.353184 9.90677L5.32937 14.9769L4.36392 21.8834C4.30307 22.3257 4.46746 22.7319 4.80623 22.9698C4.99514 23.1038 5.21947 23.1707 5.45107 23.1707C5.63544 23.1707 5.82617 23.1284 6.01054 23.0421L12.4526 20.0285C12.4624 20.0263 12.4771 20.025 12.4903 20.0238H12.4903C12.5077 20.0223 12.5224 20.021 12.5198 20.018L18.9919 23.043C19.406 23.2359 19.8556 23.2086 20.1934 22.9698C20.5313 22.7319 20.6975 22.3257 20.6357 21.8825L19.673 15.0051C19.6735" fill="white"/>
</mask>
<g mask="url(#mask0)">
<rect width="24" height="25" fill="#F4F6F9"/>
</g>
</svg>
