<svg width="36" height="36" viewBox="0 0 36 36" fill="none" xmlns="http://www.w3.org/2000/svg">
<path fill-rule="evenodd" clip-rule="evenodd" d="M10.6188 3.6001C11.3644 3.6001 11.9688 4.20451 11.9688 4.9501V5.85713H16.65V4.9501C16.65 4.20451 17.2544 3.6001 18 3.6001C18.7456 3.6001 19.35 4.20451 19.35 4.9501V5.85713H23.85V4.9501C23.85 4.20451 24.4544 3.6001 25.2 3.6001C25.9456 3.6001 26.55 4.20451 26.55 4.9501V5.85713H27.45C30.1838 5.85713 32.4 8.07332 32.4 10.8071V16.3759C32.4 17.1215 31.7956 17.7259 31.05 17.7259C30.3044 17.7259 29.7 17.1215 29.7 16.3759V10.8071C29.7 9.56449 28.6926 8.55713 27.45 8.55713H26.55V9.45261C26.55 10.1982 25.9456 10.8026 25.2 10.8026C24.4544 10.8026 23.85 10.1982 23.85 9.45261V8.55713H19.35V9.45261C19.35 10.1982 18.7456 10.8026 18 10.8026C17.2544 10.8026 16.65 10.1982 16.65 9.45261V8.55713H11.9688V9.45261C11.9688 10.1982 11.3644 10.8026 10.6188 10.8026C9.87324 10.8026 9.26883 10.1982 9.26883 9.45261V8.55713H8.55001C7.30737 8.55713 6.30001 9.56449 6.30001 10.8071V27.4571C6.30001 28.6998 7.30737 29.7071 8.55001 29.7071H16.3688C17.1143 29.7071 17.7188 30.3116 17.7188 31.0571C17.7188 31.8027 17.1143 32.4071 16.3688 32.4071H8.55001C5.8162 32.4071 3.60001 30.1909 3.60001 27.4571V10.8071C3.60001 8.07332 5.8162 5.85713 8.55001 5.85713H9.26883V4.9501C9.26883 4.20451 9.87324 3.6001 10.6188 3.6001ZM11.916 15.3971C11.916 16.093 11.3519 16.6571 10.656 16.6571C9.96013 16.6571 9.39601 16.093 9.39601 15.3971C9.39601 14.7012 9.96013 14.1371 10.656 14.1371C11.3519 14.1371 11.916 14.7012 11.916 15.3971ZM15.516 16.6571C16.2119 16.6571 16.776 16.093 16.776 15.3971C16.776 14.7012 16.2119 14.1371 15.516 14.1371C14.8201 14.1371 14.256 14.7012 14.256 15.3971C14.256 16.093 14.8201 16.6571 15.516 16.6571ZM11.916 20.3111C11.916 21.007 11.3519 21.5711 10.656 21.5711C9.96013 21.5711 9.39601 21.007 9.39601 20.3111C9.39601 19.6153 9.96013 19.0511 10.656 19.0511C11.3519 19.0511 11.916 19.6153 11.916 20.3111ZM15.516 21.5711C16.2119 21.5711 16.776 21.007 16.776 20.3111C16.776 19.6153 16.2119 19.0511 15.516 19.0511C14.8201 19.0511 14.256 19.6153 14.256 20.3111C14.256 21.007 14.8201 21.5711 15.516 21.5711ZM11.916 25.1891C11.916 25.885 11.3519 26.4491 10.656 26.4491C9.96013 26.4491 9.39601 25.885 9.39601 25.1891C9.39601 24.4932 9.96013 23.9291 10.656 23.9291C11.3519 23.9291 11.916 24.4932 11.916 25.1891ZM15.516 26.4491C16.2119 26.4491 16.776 25.885 16.776 25.1891C16.776 24.4932 16.2119 23.9291 15.516 23.9291C14.8201 23.9291 14.256 24.4932 14.256 25.1891C14.256 25.885 14.8201 26.4491 15.516 26.4491ZM21.69 15.3971C21.69 16.093 21.1259 16.6571 20.43 16.6571C19.7341 16.6571 19.17 16.093 19.17 15.3971C19.17 14.7012 19.7341 14.1371 20.43 14.1371C21.1259 14.1371 21.69 14.7012 21.69 15.3971ZM25.29 16.6571C25.9859 16.6571 26.55 16.093 26.55 15.3971C26.55 14.7012 25.9859 14.1371 25.29 14.1371C24.5941 14.1371 24.03 14.7012 24.03 15.3971C24.03 16.093 24.5941 16.6571 25.29 16.6571Z" fill="#4F4F4F"/>
<path fill-rule="evenodd" clip-rule="evenodd" d="M29.7 25.2073C29.7 27.6926 27.6853 29.7073 25.2 29.7073C22.7147 29.7073 20.7 27.6926 20.7 25.2073C20.7 22.722 22.7147 20.7073 25.2 20.7073C27.6853 20.7073 29.7 22.722 29.7 25.2073ZM32.4 25.2073C32.4 29.1838 29.1764 32.4073 25.2 32.4073C21.2235 32.4073 18 29.1838 18 25.2073C18 21.2309 21.2235 18.0073 25.2 18.0073C29.1764 18.0073 32.4 21.2309 32.4 25.2073ZM25.56 23.4073C25.56 22.9103 25.157 22.5073 24.66 22.5073C24.1629 22.5073 23.76 22.9103 23.76 23.4073V26.1073C23.76 26.6044 24.1629 27.0073 24.66 27.0073H26.82C27.317 27.0073 27.72 26.6044 27.72 26.1073C27.72 25.6103 27.317 25.2073 26.82 25.2073H25.56V23.4073Z" fill="#4F4F4F"/>
</svg>
