<svg width="288" height="178" viewBox="0 0 288 178" fill="none" xmlns="http://www.w3.org/2000/svg">
<path fill-rule="evenodd" clip-rule="evenodd" d="M4.95934 128.585C7.5349 129.082 10.4359 131.007 12.94 133.947C16.5312 132.527 19.9965 132.189 22.5037 132.959C22.0072 135.535 20.0818 138.436 17.1418 140.94C18.5621 144.531 18.9002 147.997 18.1294 150.504C15.5539 150.007 12.6529 148.082 10.1488 145.142C6.55756 146.562 3.09223 146.9 0.585037 146.129C1.08156 143.554 3.00693 140.653 5.94696 138.149C4.52666 134.558 4.18859 131.092 4.95934 128.585ZM270.654 46.6124C273.247 49.3841 275.005 54.1052 275.436 59.6766C280.848 61.0683 285.192 63.6198 287.472 66.6544C284.7 69.247 279.979 71.0054 274.407 71.4363C273.016 76.8481 270.464 81.1922 267.43 83.4716C264.837 80.6998 263.079 75.9787 262.648 70.4074C257.236 69.0157 252.892 66.4642 250.612 63.4296C253.384 60.8369 258.105 59.0785 263.677 58.6477C265.068 53.2358 267.62 48.8918 270.654 46.6124ZM40.7155 0.336452C42.8399 1.87494 44.6554 4.84592 45.6824 8.56876C49.5374 8.79926 52.8209 9.95738 54.7674 11.7155C53.229 13.8399 50.258 15.6554 46.5351 16.6824C46.3046 20.5374 45.1465 23.8209 43.3884 25.7674C41.264 24.229 39.4485 21.258 38.4215 17.5351C34.5665 17.3046 31.283 16.1465 29.3365 14.3884C30.8749 12.264 33.8459 10.4485 37.5688 9.42153C37.7993 5.56653 38.9574 2.28301 40.7155 0.336452Z" fill="#E0E2FF"/>
<path fill-rule="evenodd" clip-rule="evenodd" d="M75.7968 163.656C70.6769 147.118 66.7447 131.066 64 115.5C61.3657 100.56 59.7295 85.524 59.0913 70.3917L59.0137 68.4173C58.8448 63.778 61.8909 59.6325 66.3688 58.4077L70.0655 57.4036C90.8325 51.8028 108.525 47.7181 123.144 45.1494L124 45C139.002 42.4035 156.02 40.4101 175.053 39.0199C180.169 38.6462 184.738 42.2048 185.629 47.2569L202.005 140.129C202.964 145.568 199.332 150.755 193.893 151.714L87.086 170.547C82.1244 171.422 77.2868 168.469 75.7968 163.656Z" fill="#E6E9FF" stroke="#828FF4" stroke-width="3" stroke-linecap="round"/>
<path fill-rule="evenodd" clip-rule="evenodd" d="M80.5636 91.2127L156.09 78.079C159.904 77.4158 162.992 74.6111 164.019 70.8786L166.217 62.8846C167.242 59.1603 170.319 56.3589 174.123 55.6882L198.146 51.4523C203.585 50.4932 208.772 54.1249 209.731 59.5639C209.849 60.2344 209.898 60.9153 209.878 61.5959L207.639 137.353C207.499 142.092 204.049 146.082 199.38 146.905L87.8579 166.57" fill="#E6E9FF"/>
<path d="M80.5636 91.2127L156.09 78.079C159.904 77.4158 162.992 74.6111 164.019 70.8786L166.217 62.8846C167.242 59.1603 170.319 56.3589 174.123 55.6882L198.146 51.4523C203.585 50.4932 208.772 54.1249 209.731 59.5639C209.849 60.2344 209.898 60.9153 209.878 61.5959L207.639 137.353C207.499 142.092 204.049 146.082 199.38 146.905L87.8579 166.57" stroke="#828FF4" stroke-width="3" stroke-linecap="round"/>
<path d="M76.2641 160.52L81.5206 115.939C82.0375 111.555 85.3679 108.028 89.7153 107.262L167.318 93.5785C171.341 92.869 174.529 89.7831 175.368 85.7846L178.214 72.2237C179.054 68.2251 182.241 65.1392 186.265 64.4298L209.688 60.2996C215.127 59.3406 220.313 62.9723 221.272 68.4112C221.309 68.6173 221.338 68.8245 221.362 69.0324C222.782 81.6879 223.328 94.1948 223 106.553C222.658 119.425 221.401 130.904 219.227 140.991L219.014 141.963C218.233 145.462 215.639 148.275 212.215 149.336C198.019 153.735 182.372 157.671 165.274 161.143L163.5 161.5C145.66 165.068 120.212 168.449 87.1573 171.644C81.6601 172.176 76.773 168.15 76.2417 162.653C76.1731 161.943 76.1806 161.228 76.2641 160.52Z" fill="white" stroke="#7E86EE" stroke-width="3" stroke-linecap="round"/>
<path fill-rule="evenodd" clip-rule="evenodd" d="M4.96024 128.585C7.5358 129.081 10.4368 131.006 12.9409 133.946C16.5321 132.526 19.9974 132.188 22.5046 132.959C22.0081 135.534 20.0827 138.435 17.1427 140.939C18.563 144.531 18.9011 147.996 18.1303 150.503C15.5548 150.007 12.6538 148.081 10.1497 145.141C6.55846 146.562 3.09313 146.9 0.585938 146.129C1.08246 143.553 3.00783 140.652 5.94786 138.148C4.52756 134.557 4.18949 131.092 4.96024 128.585ZM270.655 46.6119C273.248 49.3836 275.006 54.1047 275.437 59.676C280.849 61.0678 285.193 63.6193 287.472 66.6538C284.701 69.2465 279.98 71.0049 274.408 71.4357C273.017 76.8476 270.465 81.1917 267.431 83.4711C264.838 80.6993 263.079 75.9782 262.649 70.4069C257.237 69.0152 252.893 66.4637 250.613 63.4291C253.385 60.8364 258.106 59.078 263.677 58.6472C265.069 53.2353 267.621 48.8913 270.655 46.6119ZM40.7164 0.335938C42.8408 1.87442 44.6563 4.84541 45.6833 8.56825C49.5383 8.79874 52.8218 9.95686 54.7683 11.715C53.2299 13.8394 50.2589 15.6549 46.536 16.6818C46.3055 20.5368 45.1474 23.8204 43.3893 25.7669C41.2649 24.2284 39.4494 21.2575 38.4224 17.5346C34.5674 17.3041 31.2839 16.146 29.3374 14.3879C30.8758 12.2635 33.8468 10.448 37.5697 9.42102C37.8002 5.56602 38.9583 2.28249 40.7164 0.335938Z" fill="#E0E2FF"/>
</svg>
